<svg width="44" height="44" viewBox="0 0 44 44" fill="none" xmlns="http://www.w3.org/2000/svg">
<g id="Frame 36">
<g id="Group 15">
<path id="Vector" d="M25.7765 26.9328C25.7765 26.9328 21.7334 15.6124 36.288 16.4212C36.288 16.4212 37.0968 32.5925 25.7765 26.9328Z" fill="#0FC36D"/>
<path id="Vector_2" d="M30.078 29.0487C28.6744 29.0487 27.1007 28.6153 25.3681 27.749C25.1582 27.6436 24.9964 27.4608 24.917 27.2399C24.8465 27.042 23.2158 22.3515 25.8073 18.8828C27.6907 16.3613 31.232 15.2256 36.3387 15.5102C36.8044 15.5358 37.1757 15.9091 37.1987 16.3759C37.2169 16.7383 37.5934 25.2918 33.2318 28.1396C32.3045 28.7458 31.2508 29.0487 30.078 29.0487ZM26.532 26.2844C28.9292 27.4086 30.8456 27.5188 32.2345 26.6118C34.8207 24.9226 35.38 19.9083 35.3936 17.2986C31.3923 17.201 28.6682 18.1027 27.2693 19.9747C25.6047 22.2037 26.2516 25.2698 26.532 26.2844Z" fill="black"/>
<path id="Vector_3" d="M19.798 15.5759C19.798 15.5759 7.40403 20.1318 8.14445 4.13652C8.14445 4.13652 25.8999 3.08438 19.798 15.5759Z" fill="#0FC36D"/>
<path id="Vector_4" d="M16.1218 17.0917C14.5037 17.0917 12.637 16.745 11.0078 15.5519C8.24457 13.527 6.97469 9.67189 7.23263 4.0942C7.25456 3.62792 7.62425 3.25301 8.09054 3.22533C8.48529 3.20288 17.8288 2.70422 20.9727 7.42348C22.4368 9.62019 22.3167 12.4973 20.6171 15.9764C20.5137 16.1879 20.333 16.3513 20.1122 16.4323C19.9895 16.4777 18.2763 17.0917 16.1218 17.0917ZM9.02885 5.02103C8.95001 9.48861 9.97709 12.5338 12.0861 14.0794C14.6112 15.9294 18.059 15.1431 19.143 14.8271C20.3832 12.1359 20.4881 9.98727 19.4542 8.43542C17.5327 5.55102 11.8976 4.98709 9.02885 5.02103Z" fill="black"/>
<path id="Vector_5" d="M23.2487 40.4615C23.22 40.4615 23.1913 40.4599 23.162 40.4573C22.6759 40.4113 22.312 39.991 22.3365 39.5028C22.3903 38.4292 22.4822 37.411 22.607 36.4461C22.9866 29.988 22.7908 14.9489 13.2823 10.7883C12.8207 10.5862 12.6097 10.0484 12.8118 9.5863C13.0134 9.12524 13.5528 8.91481 14.0138 9.11636C19.6171 11.5679 23.1422 17.6714 24.2058 26.7668C24.3014 27.5819 24.3729 28.3855 24.4262 29.1682C26.9304 22.8402 30.7615 20.6043 30.9897 20.4764C31.4283 20.2284 31.9849 20.3861 32.2324 20.8242C32.4784 21.2628 32.3238 21.8178 31.8867 22.0653C31.7901 22.1217 25.9154 25.6473 24.4408 36.5197C24.3285 38.3796 24.1667 39.5654 24.1515 39.674C24.0883 40.1294 23.6993 40.4615 23.2487 40.4615Z" fill="black"/>
</g>
</g>
</svg>
